<svg xmlns="http://www.w3.org/2000/svg" viewBox="0 0 32 32">
  <defs>
    <linearGradient id="gradient" x1="0%" y1="0%" x2="100%" y2="100%">
      <stop offset="0%" style="stop-color:#6366f1" />
      <stop offset="100%" style="stop-color:#ec4899" />
    </linearGradient>
  </defs>
  <circle cx="16" cy="16" r="16" fill="url(#gradient)" />
  <path d="M16 7c-2.2 0-4 1.8-4 4s1.8 4 4 4 4-1.8 4-4-1.8-4-4-4zm0 2c1.1 0 2 .9 2 2s-.9 2-2 2-2-.9-2-2 .9-2 2-2zM8 22c0-3.3 3.6-6 8-6s8 2.7 8 6v3H8v-3z" fill="white" />
  <rect x="7" y="18" width="18" height="2" fill="white" transform="rotate(-5 16 19)" opacity="0.5" />
  <rect x="7" y="21" width="18" height="2" fill="white" transform="rotate(5 16 22)" opacity="0.5" />
</svg>
